<mxfile host="app.diagrams.net" modified="2024-05-08T16:18:38.766Z" agent="Mozilla/5.0 (Windows NT 10.0; Win64; x64) AppleWebKit/537.36 (KHTML, like Gecko) Chrome/124.0.0.0 Safari/537.36" etag="YZDHtGWElVExaFJwGzYw" version="24.3.1" type="device">
  <diagram name="Page-1" id="c7558073-3199-34d8-9f00-42111426c3f3">
    <mxGraphModel dx="2803" dy="814" grid="0" gridSize="10" guides="1" tooltips="1" connect="1" arrows="1" fold="1" page="0" pageScale="1" pageWidth="826" pageHeight="1169" background="none" math="0" shadow="0">
      <root>
        <mxCell id="0" />
        <mxCell id="1" parent="0" />
        <mxCell id="5" value="GameManager" style="shape=process;whiteSpace=wrap;align=left;verticalAlign=top;size=0.2295839753466872;fontStyle=1;strokeWidth=3;fillColor=#FFCCCC" parent="1" vertex="1">
          <mxGeometry x="201" y="250" width="649" height="360" as="geometry" />
        </mxCell>
        <mxCell id="pnOoYnmZAtzS62gMc0uK-97" value="&lt;ul&gt;&lt;li&gt;加载/初始化角色&lt;/li&gt;&lt;ul&gt;&lt;li&gt;加载Prefab&lt;/li&gt;&lt;li&gt;初始化角色技能（skill_name_list）&lt;/li&gt;&lt;/ul&gt;&lt;li&gt;管理UI&lt;/li&gt;&lt;ul&gt;&lt;li&gt;包含Ui对象&lt;/li&gt;&lt;li&gt;通过UiController更新UI数据&lt;/li&gt;&lt;li&gt;接收UI操作信号，并回调自身invoke函数，并将信号传递给当前选中的角色&lt;/li&gt;&lt;/ul&gt;&lt;li&gt;处理输入&lt;/li&gt;&lt;ul&gt;&lt;li&gt;角色切换（左键/tab）&lt;/li&gt;&lt;li&gt;角色移动导航位置（右键terrain）&lt;/li&gt;&lt;li&gt;角色攻击（右键selectable）&lt;/li&gt;&lt;/ul&gt;&lt;li&gt;&lt;br&gt;&lt;/li&gt;&lt;/ul&gt;" style="text;html=1;align=left;verticalAlign=middle;whiteSpace=wrap;rounded=0;" parent="1" vertex="1">
          <mxGeometry x="346" y="300" width="335" height="190" as="geometry" />
        </mxCell>
        <mxCell id="pnOoYnmZAtzS62gMc0uK-100" value="UI" style="shape=process;whiteSpace=wrap;align=left;verticalAlign=top;size=0.255863539445629;fontStyle=1;strokeWidth=3;fillColor=#FFCCCC" parent="1" vertex="1">
          <mxGeometry x="441" y="691" width="469" height="250" as="geometry" />
        </mxCell>
        <mxCell id="pnOoYnmZAtzS62gMc0uK-102" value="&lt;p style=&quot;margin: 0px; margin-top: 4px; text-align: center; text-decoration: underline;&quot;&gt;&lt;strong&gt;invokeUiEvent&lt;/strong&gt;&lt;/p&gt;&lt;hr&gt;&lt;p style=&quot;margin: 0px; margin-left: 8px;&quot;&gt;传递给角色&lt;/p&gt;" style="verticalAlign=middle;align=center;overflow=fill;fontSize=12;fontFamily=Helvetica;html=1;rounded=1;fontStyle=1;strokeWidth=3;fillColor=#E6FFCC" parent="1" vertex="1">
          <mxGeometry x="393" y="510" width="110" height="60" as="geometry" />
        </mxCell>
        <mxCell id="C39uK7xA4uU1zR5Ak_56-5" style="edgeStyle=orthogonalEdgeStyle;rounded=0;orthogonalLoop=1;jettySize=auto;html=1;exitX=0.5;exitY=0;exitDx=0;exitDy=0;entryX=0.5;entryY=1;entryDx=0;entryDy=0;" edge="1" parent="1" source="pnOoYnmZAtzS62gMc0uK-103" target="pnOoYnmZAtzS62gMc0uK-102">
          <mxGeometry relative="1" as="geometry" />
        </mxCell>
        <mxCell id="pnOoYnmZAtzS62gMc0uK-103" value="&lt;p style=&quot;margin: 0px; margin-top: 4px; text-align: center; text-decoration: underline;&quot;&gt;&lt;strong&gt;ButtonEvent&lt;/strong&gt;&lt;/p&gt;&lt;hr&gt;&lt;p style=&quot;margin: 0px; margin-left: 8px;&quot;&gt;&lt;br&gt;&lt;/p&gt;" style="verticalAlign=middle;align=center;overflow=fill;fontSize=12;fontFamily=Helvetica;html=1;rounded=1;fontStyle=1;strokeWidth=3;fillColor=#E6FFCC" parent="1" vertex="1">
          <mxGeometry x="449.5" y="706" width="100" height="30" as="geometry" />
        </mxCell>
        <mxCell id="pnOoYnmZAtzS62gMc0uK-105" style="edgeStyle=orthogonalEdgeStyle;rounded=0;orthogonalLoop=1;jettySize=auto;html=1;exitX=1;exitY=0.5;exitDx=0;exitDy=0;" parent="1" source="pnOoYnmZAtzS62gMc0uK-104" edge="1">
          <mxGeometry relative="1" as="geometry">
            <mxPoint x="887" y="688" as="targetPoint" />
          </mxGeometry>
        </mxCell>
        <mxCell id="pnOoYnmZAtzS62gMc0uK-104" value="&lt;p style=&quot;margin: 0px; margin-top: 4px; text-align: center; text-decoration: underline;&quot;&gt;&lt;strong&gt;renderUi&lt;/strong&gt;&lt;/p&gt;&lt;hr&gt;&lt;p style=&quot;margin: 0px; margin-left: 8px;&quot;&gt;角色数据&lt;/p&gt;&lt;p style=&quot;margin: 0px; margin-left: 8px;&quot;&gt;游戏数据&lt;/p&gt;" style="verticalAlign=middle;align=center;overflow=fill;fontSize=12;fontFamily=Helvetica;html=1;rounded=1;fontStyle=1;strokeWidth=3;fillColor=#E6FFCC" parent="1" vertex="1">
          <mxGeometry x="716" y="434" width="110" height="67" as="geometry" />
        </mxCell>
        <mxCell id="pnOoYnmZAtzS62gMc0uK-107" value="角色" style="shape=process;whiteSpace=wrap;align=left;verticalAlign=top;size=0.18666666666666668;fontStyle=1;strokeWidth=3;fillColor=#FFCCCC" parent="1" vertex="1">
          <mxGeometry x="-690" y="270" width="750" height="310" as="geometry" />
        </mxCell>
        <mxCell id="pnOoYnmZAtzS62gMc0uK-139" style="edgeStyle=orthogonalEdgeStyle;rounded=0;orthogonalLoop=1;jettySize=auto;html=1;exitX=0.5;exitY=0;exitDx=0;exitDy=0;startArrow=none;startFill=0;entryX=0.5;entryY=1;entryDx=0;entryDy=0;" parent="1" source="pnOoYnmZAtzS62gMc0uK-108" target="pnOoYnmZAtzS62gMc0uK-135" edge="1">
          <mxGeometry relative="1" as="geometry">
            <mxPoint x="-230" y="360" as="targetPoint" />
          </mxGeometry>
        </mxCell>
        <mxCell id="VZYB_BsH1wKympOT2HkG-97" style="edgeStyle=orthogonalEdgeStyle;rounded=0;orthogonalLoop=1;jettySize=auto;html=1;exitX=0.5;exitY=0;exitDx=0;exitDy=0;entryX=0.5;entryY=1;entryDx=0;entryDy=0;" parent="1" source="pnOoYnmZAtzS62gMc0uK-108" target="pnOoYnmZAtzS62gMc0uK-134" edge="1">
          <mxGeometry relative="1" as="geometry" />
        </mxCell>
        <mxCell id="VZYB_BsH1wKympOT2HkG-98" style="edgeStyle=orthogonalEdgeStyle;rounded=0;orthogonalLoop=1;jettySize=auto;html=1;exitX=0.5;exitY=0;exitDx=0;exitDy=0;entryX=0.5;entryY=1;entryDx=0;entryDy=0;" parent="1" source="pnOoYnmZAtzS62gMc0uK-108" target="pnOoYnmZAtzS62gMc0uK-133" edge="1">
          <mxGeometry relative="1" as="geometry" />
        </mxCell>
        <mxCell id="pnOoYnmZAtzS62gMc0uK-108" value="状态机" style="whiteSpace=wrap;align=center;verticalAlign=middle;fontStyle=1;strokeWidth=3;fillColor=#FFFFCC" parent="1" vertex="1">
          <mxGeometry x="-299.5" y="355.9999999999999" width="90" height="60" as="geometry" />
        </mxCell>
        <mxCell id="pnOoYnmZAtzS62gMc0uK-110" value="&lt;p style=&quot;margin: 0px; margin-top: 4px; text-align: center; text-decoration: underline;&quot;&gt;鼠标/键盘&lt;/p&gt;&lt;hr&gt;&lt;p style=&quot;margin: 0px; margin-left: 8px;&quot;&gt;移动攻击事件&lt;/p&gt;" style="verticalAlign=middle;align=center;overflow=fill;fontSize=12;fontFamily=Helvetica;html=1;rounded=0;fontStyle=1;strokeWidth=3;fillColor=#1ba1e2;strokeColor=#006EAF;fontColor=#ffffff;" parent="1" vertex="1">
          <mxGeometry x="283" y="688" width="110" height="60" as="geometry" />
        </mxCell>
        <mxCell id="pnOoYnmZAtzS62gMc0uK-133" value="&lt;p style=&quot;margin: 0px; margin-top: 4px; text-align: center; text-decoration: underline;&quot;&gt;Idle&lt;/p&gt;" style="verticalAlign=middle;align=center;overflow=fill;fontSize=12;fontFamily=Helvetica;html=1;rounded=1;fontStyle=1;strokeWidth=3;fillColor=#E6FFCC" parent="1" vertex="1">
          <mxGeometry x="-405.25" y="283" width="90.5" height="27" as="geometry" />
        </mxCell>
        <mxCell id="pnOoYnmZAtzS62gMc0uK-134" value="&lt;p style=&quot;margin: 0px; margin-top: 4px; text-align: center; text-decoration: underline;&quot;&gt;attack&lt;/p&gt;" style="verticalAlign=middle;align=center;overflow=fill;fontSize=12;fontFamily=Helvetica;html=1;rounded=1;fontStyle=1;strokeWidth=3;fillColor=#E6FFCC" parent="1" vertex="1">
          <mxGeometry x="-190" y="283" width="90.5" height="27" as="geometry" />
        </mxCell>
        <mxCell id="pnOoYnmZAtzS62gMc0uK-135" value="&lt;p style=&quot;margin: 0px; margin-top: 4px; text-align: center; text-decoration: underline;&quot;&gt;move&lt;/p&gt;" style="verticalAlign=middle;align=center;overflow=fill;fontSize=12;fontFamily=Helvetica;html=1;rounded=1;fontStyle=1;strokeWidth=3;fillColor=#E6FFCC" parent="1" vertex="1">
          <mxGeometry x="-300" y="283" width="90.5" height="27" as="geometry" />
        </mxCell>
        <mxCell id="pnOoYnmZAtzS62gMc0uK-137" style="edgeStyle=orthogonalEdgeStyle;rounded=0;orthogonalLoop=1;jettySize=auto;html=1;exitX=1;exitY=0.5;exitDx=0;exitDy=0;entryX=0;entryY=0.5;entryDx=0;entryDy=0;" parent="1" source="pnOoYnmZAtzS62gMc0uK-136" target="pnOoYnmZAtzS62gMc0uK-108" edge="1">
          <mxGeometry relative="1" as="geometry" />
        </mxCell>
        <mxCell id="pnOoYnmZAtzS62gMc0uK-136" value="Update" style="ellipse;whiteSpace=wrap;html=1;aspect=fixed;" parent="1" vertex="1">
          <mxGeometry x="-630" y="363.5" width="45" height="45" as="geometry" />
        </mxCell>
        <mxCell id="pnOoYnmZAtzS62gMc0uK-142" value="Update" style="text;html=1;align=center;verticalAlign=middle;whiteSpace=wrap;rounded=0;" parent="1" vertex="1">
          <mxGeometry x="-310" y="326" width="60" height="30" as="geometry" />
        </mxCell>
        <mxCell id="pnOoYnmZAtzS62gMc0uK-143" value="事件通知" style="text;html=1;align=center;verticalAlign=middle;whiteSpace=wrap;rounded=0;" parent="1" vertex="1">
          <mxGeometry x="90" y="356" width="90" height="30" as="geometry" />
        </mxCell>
        <mxCell id="pnOoYnmZAtzS62gMc0uK-144" value="移动" style="ellipse;whiteSpace=wrap;html=1;" parent="1" vertex="1">
          <mxGeometry x="-643" y="470" width="71" height="26" as="geometry" />
        </mxCell>
        <mxCell id="pnOoYnmZAtzS62gMc0uK-145" value="基础能力" style="text;html=1;align=center;verticalAlign=middle;whiteSpace=wrap;rounded=0;" parent="1" vertex="1">
          <mxGeometry x="-670" y="340" width="60" height="30" as="geometry" />
        </mxCell>
        <mxCell id="pnOoYnmZAtzS62gMc0uK-146" value="转身" style="ellipse;whiteSpace=wrap;html=1;" parent="1" vertex="1">
          <mxGeometry x="-643" y="501" width="71" height="20" as="geometry" />
        </mxCell>
        <mxCell id="VZYB_BsH1wKympOT2HkG-109" style="edgeStyle=orthogonalEdgeStyle;rounded=0;orthogonalLoop=1;jettySize=auto;html=1;exitX=1;exitY=0.5;exitDx=0;exitDy=0;entryX=0;entryY=0.5;entryDx=0;entryDy=0;" parent="1" source="pnOoYnmZAtzS62gMc0uK-168" target="VZYB_BsH1wKympOT2HkG-107" edge="1">
          <mxGeometry relative="1" as="geometry" />
        </mxCell>
        <mxCell id="yt-BPN5N51YkLN_ZX3K--10" style="edgeStyle=orthogonalEdgeStyle;rounded=0;orthogonalLoop=1;jettySize=auto;html=1;exitX=1;exitY=0.5;exitDx=0;exitDy=0;entryX=0;entryY=0.5;entryDx=0;entryDy=0;" parent="1" source="pnOoYnmZAtzS62gMc0uK-168" target="yt-BPN5N51YkLN_ZX3K--8" edge="1">
          <mxGeometry relative="1" as="geometry">
            <Array as="points">
              <mxPoint x="-560" y="540" />
              <mxPoint x="-560" y="476" />
            </Array>
          </mxGeometry>
        </mxCell>
        <mxCell id="pnOoYnmZAtzS62gMc0uK-168" value="动画" style="ellipse;whiteSpace=wrap;html=1;" parent="1" vertex="1">
          <mxGeometry x="-643" y="530" width="71" height="20" as="geometry" />
        </mxCell>
        <mxCell id="VZYB_BsH1wKympOT2HkG-96" value="技能" style="shape=process;whiteSpace=wrap;align=left;verticalAlign=top;size=0.22580645161290322;fontStyle=1;strokeWidth=3;fillColor=#FFCCCC" parent="1" vertex="1">
          <mxGeometry x="-591" y="630" width="320" height="218" as="geometry" />
        </mxCell>
        <mxCell id="VZYB_BsH1wKympOT2HkG-120" style="edgeStyle=orthogonalEdgeStyle;rounded=0;orthogonalLoop=1;jettySize=auto;html=1;exitX=1;exitY=0.5;exitDx=0;exitDy=0;entryX=0;entryY=0.5;entryDx=0;entryDy=0;" parent="1" source="VZYB_BsH1wKympOT2HkG-100" target="VZYB_BsH1wKympOT2HkG-119" edge="1">
          <mxGeometry relative="1" as="geometry" />
        </mxCell>
        <mxCell id="VZYB_BsH1wKympOT2HkG-100" value="&lt;font style=&quot;font-size: 8px;&quot;&gt;Update&lt;/font&gt;" style="ellipse;whiteSpace=wrap;html=1;aspect=fixed;" parent="1" vertex="1">
          <mxGeometry x="-572" y="703" width="30" height="30" as="geometry" />
        </mxCell>
        <mxCell id="VZYB_BsH1wKympOT2HkG-104" style="edgeStyle=orthogonalEdgeStyle;rounded=0;orthogonalLoop=1;jettySize=auto;html=1;exitX=0;exitY=0.5;exitDx=0;exitDy=0;entryX=0.5;entryY=1;entryDx=0;entryDy=0;" parent="1" source="VZYB_BsH1wKympOT2HkG-102" target="pnOoYnmZAtzS62gMc0uK-168" edge="1">
          <mxGeometry relative="1" as="geometry" />
        </mxCell>
        <mxCell id="VZYB_BsH1wKympOT2HkG-102" value="&lt;p style=&quot;margin: 0px; margin-top: 4px; text-align: center; text-decoration: underline;&quot;&gt;skill_status&lt;/p&gt;" style="verticalAlign=middle;align=center;overflow=fill;fontSize=12;fontFamily=Helvetica;html=1;rounded=1;fontStyle=1;strokeWidth=3;fillColor=#E6FFCC" parent="1" vertex="1">
          <mxGeometry x="-471.25" y="808" width="90.5" height="27" as="geometry" />
        </mxCell>
        <mxCell id="VZYB_BsH1wKympOT2HkG-139" style="edgeStyle=orthogonalEdgeStyle;rounded=0;orthogonalLoop=1;jettySize=auto;html=1;exitX=0.5;exitY=1;exitDx=0;exitDy=0;entryX=0.5;entryY=0;entryDx=0;entryDy=0;" parent="1" source="VZYB_BsH1wKympOT2HkG-107" target="VZYB_BsH1wKympOT2HkG-137" edge="1">
          <mxGeometry relative="1" as="geometry" />
        </mxCell>
        <mxCell id="VZYB_BsH1wKympOT2HkG-107" value="&lt;p style=&quot;margin: 0px; margin-top: 4px; text-align: center; text-decoration: underline;&quot;&gt;&lt;strong&gt;animationCb&lt;/strong&gt;&lt;/p&gt;" style="verticalAlign=middle;align=center;overflow=fill;fontSize=12;fontFamily=Helvetica;html=1;rounded=1;fontStyle=1;strokeWidth=3;fillColor=#E6FFCC" parent="1" vertex="1">
          <mxGeometry x="-530" y="520" width="80" height="40" as="geometry" />
        </mxCell>
        <mxCell id="VZYB_BsH1wKympOT2HkG-103" style="edgeStyle=orthogonalEdgeStyle;rounded=0;orthogonalLoop=1;jettySize=auto;html=1;exitX=0.5;exitY=1;exitDx=0;exitDy=0;entryX=1;entryY=0.5;entryDx=0;entryDy=0;startArrow=none;startFill=0;endArrow=classic;endFill=1;" parent="1" source="pnOoYnmZAtzS62gMc0uK-108" target="VZYB_BsH1wKympOT2HkG-102" edge="1">
          <mxGeometry relative="1" as="geometry" />
        </mxCell>
        <mxCell id="VZYB_BsH1wKympOT2HkG-122" style="edgeStyle=orthogonalEdgeStyle;rounded=0;orthogonalLoop=1;jettySize=auto;html=1;exitX=0;exitY=0.5;exitDx=0;exitDy=0;entryX=0.5;entryY=0;entryDx=0;entryDy=0;" parent="1" source="VZYB_BsH1wKympOT2HkG-110" target="VZYB_BsH1wKympOT2HkG-119" edge="1">
          <mxGeometry relative="1" as="geometry" />
        </mxCell>
        <mxCell id="VZYB_BsH1wKympOT2HkG-110" value="event_map" style="whiteSpace=wrap;align=center;verticalAlign=middle;fontStyle=1;strokeWidth=3;fillColor=#FFFFCC" parent="1" vertex="1">
          <mxGeometry x="-50" y="510" width="91" height="60" as="geometry" />
        </mxCell>
        <mxCell id="VZYB_BsH1wKympOT2HkG-121" style="edgeStyle=orthogonalEdgeStyle;rounded=0;orthogonalLoop=1;jettySize=auto;html=1;exitX=0;exitY=0.5;exitDx=0;exitDy=0;entryX=0.5;entryY=0;entryDx=0;entryDy=0;" parent="1" source="VZYB_BsH1wKympOT2HkG-115" target="VZYB_BsH1wKympOT2HkG-119" edge="1">
          <mxGeometry relative="1" as="geometry" />
        </mxCell>
        <mxCell id="VZYB_BsH1wKympOT2HkG-115" value="&lt;p style=&quot;margin: 0px; margin-top: 4px; text-align: center; text-decoration: underline;&quot;&gt;鼠标/键盘&lt;/p&gt;&lt;hr&gt;&lt;p style=&quot;margin: 0px; margin-left: 8px;&quot;&gt;&lt;br&gt;&lt;/p&gt;" style="verticalAlign=middle;align=center;overflow=fill;fontSize=12;fontFamily=Helvetica;html=1;rounded=0;fontStyle=1;strokeWidth=3;fillColor=#1ba1e2;strokeColor=#006EAF;fontColor=#ffffff;" parent="1" vertex="1">
          <mxGeometry x="-334.5" y="640" width="56.5" height="37" as="geometry" />
        </mxCell>
        <mxCell id="VZYB_BsH1wKympOT2HkG-124" style="edgeStyle=orthogonalEdgeStyle;rounded=0;orthogonalLoop=1;jettySize=auto;html=1;exitX=1;exitY=0.5;exitDx=0;exitDy=0;" parent="1" source="VZYB_BsH1wKympOT2HkG-119" target="VZYB_BsH1wKympOT2HkG-123" edge="1">
          <mxGeometry relative="1" as="geometry" />
        </mxCell>
        <mxCell id="VZYB_BsH1wKympOT2HkG-119" value="处理逻辑" style="whiteSpace=wrap;align=center;verticalAlign=middle;fontStyle=1;strokeWidth=3;fillColor=#FFFFCC" parent="1" vertex="1">
          <mxGeometry x="-470.25" y="703" width="91.25" height="32" as="geometry" />
        </mxCell>
        <mxCell id="VZYB_BsH1wKympOT2HkG-123" value="技能事件" style="whiteSpace=wrap;align=center;verticalAlign=middle;fontStyle=1;strokeWidth=3;fillColor=#1ba1e2;fontColor=#ffffff;strokeColor=#006EAF;" parent="1" vertex="1">
          <mxGeometry x="133" y="688" width="90" height="60" as="geometry" />
        </mxCell>
        <mxCell id="VZYB_BsH1wKympOT2HkG-125" style="edgeStyle=orthogonalEdgeStyle;rounded=0;orthogonalLoop=1;jettySize=auto;html=1;exitX=0;exitY=0.5;exitDx=0;exitDy=0;entryX=1;entryY=0.5;entryDx=0;entryDy=0;" parent="1" source="pnOoYnmZAtzS62gMc0uK-102" target="VZYB_BsH1wKympOT2HkG-110" edge="1">
          <mxGeometry relative="1" as="geometry" />
        </mxCell>
        <mxCell id="VZYB_BsH1wKympOT2HkG-126" value="事件队列" style="strokeWidth=2;html=1;shape=mxgraph.flowchart.direct_data;whiteSpace=wrap;rotation=-90;" parent="1" vertex="1">
          <mxGeometry x="230" y="430" width="100" height="60" as="geometry" />
        </mxCell>
        <mxCell id="VZYB_BsH1wKympOT2HkG-127" style="edgeStyle=orthogonalEdgeStyle;rounded=0;orthogonalLoop=1;jettySize=auto;html=1;exitX=0.5;exitY=0;exitDx=0;exitDy=0;entryX=0;entryY=0.5;entryDx=0;entryDy=0;entryPerimeter=0;" parent="1" source="pnOoYnmZAtzS62gMc0uK-110" target="VZYB_BsH1wKympOT2HkG-126" edge="1">
          <mxGeometry relative="1" as="geometry">
            <Array as="points">
              <mxPoint x="338" y="600" />
              <mxPoint x="280" y="600" />
            </Array>
          </mxGeometry>
        </mxCell>
        <mxCell id="VZYB_BsH1wKympOT2HkG-130" style="edgeStyle=orthogonalEdgeStyle;rounded=0;orthogonalLoop=1;jettySize=auto;html=1;exitX=0.5;exitY=0;exitDx=0;exitDy=0;entryX=0;entryY=0.5;entryDx=0;entryDy=0;entryPerimeter=0;" parent="1" source="VZYB_BsH1wKympOT2HkG-123" target="VZYB_BsH1wKympOT2HkG-126" edge="1">
          <mxGeometry relative="1" as="geometry">
            <Array as="points">
              <mxPoint x="178" y="600" />
              <mxPoint x="280" y="600" />
            </Array>
          </mxGeometry>
        </mxCell>
        <mxCell id="VZYB_BsH1wKympOT2HkG-131" style="edgeStyle=orthogonalEdgeStyle;rounded=0;orthogonalLoop=1;jettySize=auto;html=1;exitX=1;exitY=0.5;exitDx=0;exitDy=0;exitPerimeter=0;entryX=1;entryY=0.5;entryDx=0;entryDy=0;" parent="1" source="VZYB_BsH1wKympOT2HkG-126" target="VZYB_BsH1wKympOT2HkG-132" edge="1">
          <mxGeometry relative="1" as="geometry" />
        </mxCell>
        <mxCell id="VZYB_BsH1wKympOT2HkG-135" style="edgeStyle=orthogonalEdgeStyle;rounded=0;orthogonalLoop=1;jettySize=auto;html=1;exitX=0;exitY=0.5;exitDx=0;exitDy=0;entryX=1;entryY=0.5;entryDx=0;entryDy=0;" parent="1" source="VZYB_BsH1wKympOT2HkG-132" target="pnOoYnmZAtzS62gMc0uK-108" edge="1">
          <mxGeometry relative="1" as="geometry" />
        </mxCell>
        <mxCell id="VZYB_BsH1wKympOT2HkG-132" value="事件处理" style="whiteSpace=wrap;align=center;verticalAlign=middle;fontStyle=1;strokeWidth=3;fillColor=#FFFFCC" parent="1" vertex="1">
          <mxGeometry x="-48" y="356" width="91" height="60" as="geometry" />
        </mxCell>
        <mxCell id="VZYB_BsH1wKympOT2HkG-136" value="变更" style="text;html=1;align=center;verticalAlign=middle;whiteSpace=wrap;rounded=0;" parent="1" vertex="1">
          <mxGeometry x="-160" y="356" width="60" height="30" as="geometry" />
        </mxCell>
        <mxCell id="VZYB_BsH1wKympOT2HkG-137" value="执行逻辑" style="whiteSpace=wrap;align=center;verticalAlign=middle;fontStyle=1;strokeWidth=3;fillColor=#FFFFCC" parent="1" vertex="1">
          <mxGeometry x="-585" y="645" width="60" height="32" as="geometry" />
        </mxCell>
        <mxCell id="yt-BPN5N51YkLN_ZX3K--5" value="&lt;h1 style=&quot;margin-top: 0px;&quot;&gt;模型基础能力搭建&lt;/h1&gt;&lt;p&gt;1. 导入模型到项目中&lt;/p&gt;&lt;p&gt;&lt;/p&gt;&lt;ul&gt;&lt;li&gt;模型至少有三个动作&lt;/li&gt;&lt;ul&gt;&lt;li&gt;idle，move，attack&lt;/li&gt;&lt;li&gt;有这三个动作才能实现基本的功能&lt;/li&gt;&lt;li&gt;在此基础上才进行技能系统搭建&lt;/li&gt;&lt;/ul&gt;&lt;/ul&gt;&lt;p&gt;&lt;/p&gt;&lt;p&gt;2. 添加基础组件&lt;/p&gt;&lt;p&gt;&lt;/p&gt;&lt;ul&gt;&lt;li&gt;设置animation。&lt;/li&gt;&lt;li&gt;复制标准animator controller，并赋值给角色Animator的controller中。并调整controller中不同状态对应的动画&lt;/li&gt;&lt;li&gt;boxcolleder， raycast 需要&lt;/li&gt;&lt;li&gt;添加nav mesh agent， 设置其属性（一般复制已有即可）&lt;/li&gt;&lt;li&gt;添加Character.cs 脚本，设置相关属性即可（血条，等等）&lt;/li&gt;&lt;ul&gt;&lt;li&gt;脚本实现角色状态（控制移动，攻击），血条等游戏元素&lt;/li&gt;&lt;/ul&gt;&lt;/ul&gt;&lt;div&gt;3. 将角色增加到GameManager对象中，可被管理。&lt;/div&gt;&lt;div&gt;4. 上述完成之后，可实现角色的基础移动，攻击。&lt;/div&gt;&lt;div&gt;&lt;br&gt;&lt;/div&gt;&lt;div&gt;5. 如何实现攻击有效&lt;/div&gt;&lt;div&gt;&lt;ul&gt;&lt;li&gt;攻击对应animation中，触发事件ActionCb事件即可，事件会回调Character.cs中的函数，然后传递给状态机，触发对应状态的处理函数。&lt;/li&gt;&lt;/ul&gt;&lt;/div&gt;&lt;div&gt;&lt;br&gt;&lt;/div&gt;&lt;p&gt;&lt;/p&gt;" style="text;html=1;whiteSpace=wrap;overflow=hidden;rounded=0;" parent="1" vertex="1">
          <mxGeometry x="-1176" y="250" width="455" height="409" as="geometry" />
        </mxCell>
        <mxCell id="yt-BPN5N51YkLN_ZX3K--11" style="edgeStyle=orthogonalEdgeStyle;rounded=0;orthogonalLoop=1;jettySize=auto;html=1;exitX=1;exitY=0.5;exitDx=0;exitDy=0;entryX=0.25;entryY=1;entryDx=0;entryDy=0;" parent="1" source="yt-BPN5N51YkLN_ZX3K--8" target="pnOoYnmZAtzS62gMc0uK-108" edge="1">
          <mxGeometry relative="1" as="geometry" />
        </mxCell>
        <mxCell id="yt-BPN5N51YkLN_ZX3K--8" value="&lt;p style=&quot;margin: 0px; margin-top: 4px; text-align: center; text-decoration: underline;&quot;&gt;&lt;strong&gt;animationCb&lt;/strong&gt;&lt;/p&gt;" style="verticalAlign=middle;align=center;overflow=fill;fontSize=12;fontFamily=Helvetica;html=1;rounded=1;fontStyle=1;strokeWidth=3;fillColor=#E6FFCC" parent="1" vertex="1">
          <mxGeometry x="-530" y="456" width="80" height="40" as="geometry" />
        </mxCell>
      </root>
    </mxGraphModel>
  </diagram>
</mxfile>
